<?xml version="1.0" encoding="UTF-8" standalone="no"?>
<!-- Generator: Adobe Illustrator 22.0.1, SVG Export Plug-In . SVG Version: 6.00 Build 0)  -->

<svg
   xmlns:dc="http://purl.org/dc/elements/1.1/"
   xmlns:cc="http://creativecommons.org/ns#"
   xmlns:rdf="http://www.w3.org/1999/02/22-rdf-syntax-ns#"
   xmlns:svg="http://www.w3.org/2000/svg"
   xmlns="http://www.w3.org/2000/svg"
   xmlns:sodipodi="http://sodipodi.sourceforge.net/DTD/sodipodi-0.dtd"
   xmlns:inkscape="http://www.inkscape.org/namespaces/inkscape"
   version="1.1"
   id="Layer_1"
   x="0px"
   y="0px"
   viewBox="0 0 22.1 32"
   style="enable-background:new 0 0 22.1 32;"
   xml:space="preserve"
   sodipodi:docname="generic_32.svg"
   inkscape:version="0.92.4 (5da689c313, 2019-01-14)"
   inkscape:export-filename="D:\Winter2019\Web\Web Map 1\img\generic_32.png"
   inkscape:export-xdpi="96"
   inkscape:export-ydpi="96"><metadata
   id="metadata15"><rdf:RDF><cc:Work
       rdf:about=""><dc:format>image/svg+xml</dc:format><dc:type
         rdf:resource="http://purl.org/dc/dcmitype/StillImage" /></cc:Work></rdf:RDF></metadata><defs
   id="defs13" /><sodipodi:namedview
   pagecolor="#ffffff"
   bordercolor="#666666"
   borderopacity="1"
   objecttolerance="10"
   gridtolerance="10"
   guidetolerance="10"
   inkscape:pageopacity="0"
   inkscape:pageshadow="2"
   inkscape:window-width="1920"
   inkscape:window-height="1001"
   id="namedview11"
   showgrid="false"
   inkscape:zoom="29.5"
   inkscape:cx="13.574176"
   inkscape:cy="17.208577"
   inkscape:window-x="-9"
   inkscape:window-y="-9"
   inkscape:window-maximized="1"
   inkscape:current-layer="g8" />
<style
   type="text/css"
   id="style2">
	.st0{fill:#B30838;}
	.st1{fill:#FFFFFF;}
	.st2{fill:#0065A4;stroke:#FFFFFF;stroke-width:0.75;stroke-miterlimit:10;}
	.st3{fill:#1B75BC;}
	.st4{fill:#00AEEF;}
	.st5{fill:#00A1E4;}
	.st6{fill:#BE1E2D;}
	.st7{fill:#13B5EA;}
	.st8{fill:#005C9F;}
	.st9{fill:none;stroke:#ED174F;stroke-width:9;stroke-miterlimit:10;}
	.st10{fill:none;stroke:#00853F;stroke-width:4;stroke-miterlimit:10;}
	.st11{fill:none;stroke:#F7941D;stroke-width:9;stroke-miterlimit:10;}
	.st12{fill:#666262;}
</style>
<g
   id="g8">
	<path
   class="st12"
   d="M20,5c-1.5-2.3-3.4-3.5-4.1-3.8C15.1,0.7,12.9-0.3,9.9,0C8.9,0.1,7,0.4,5.2,1.6c-2.9,1.9-4,4.7-4.3,5.7   c-0.8,2.3-0.5,4.3-0.4,4.9c0.2,1.1,0.5,2.1,1.1,3.4c1.7,3.6,3.6,6.1,3.6,6.2c1.5,2,3.6,5.2,5.8,9.9c5.8-8.6,9.6-15.5,10.3-18.5   c0.3-1.3,0.3-2.5,0.3-2.5C21.6,7.8,20.5,5.8,20,5z M17.5,14.8c-0.3,0.5-1.6,2.5-4.3,3.4c-0.5,0.1-3.3,1-6.2-0.7   c-3.4-2.1-3.7-6-3.7-6.3c0-0.5,0-3.4,2.2-5.7C6.1,4.9,8,3.1,10.9,3.1c2.9,0,4.9,1.8,5.4,2.3c0.5,0.4,1.6,1.6,2.1,3.5   C19.2,11.9,17.8,14.3,17.5,14.8z"
   id="path4"
   style="fill:#fff233;fill-opacity:1;stroke:#0d8141;stroke-opacity:1;stroke-width:0.5;stroke-miterlimit:4;stroke-dasharray:none" />
	<path
   style="fill:#fff233;fill-opacity:1;stroke:#0d8141;stroke-opacity:1;stroke-width:0.5;stroke-miterlimit:4;stroke-dasharray:none"
   d="M 10.900391 5.6992188 L 9.4003906 8.9003906 L 5.9003906 9.5 L 8.4003906 11.900391 L 7.9003906 15.400391 L 11 13.800781 L 14.199219 15.400391 L 13.599609 11.800781 L 16.099609 9.3007812 L 12.599609 8.8007812 L 10.900391 5.6992188 z "
   id="polyline6" />
</g>
</svg>